<?xml version="1.0" encoding="utf-8"?>
<!-- Generator: Adobe Illustrator 27.1.1, SVG Export Plug-In . SVG Version: 6.00 Build 0)  -->
<svg version="1.1" id="Layer_1" xmlns="http://www.w3.org/2000/svg" xmlns:xlink="http://www.w3.org/1999/xlink" x="0px" y="0px"
	 viewBox="0 0 512 512" style="enable-background:new 0 0 512 512;" xml:space="preserve">
<style type="text/css">
	.st0{fill:#FFFFFF;}
</style>
<g>
	
		<image style="overflow:visible;opacity:0.3;" width="490" height="298" xlink:href="CBC5E662983ED6F3.png"  transform="matrix(1 0 0 1 11 114)">
	</image>
	<g>
		<path class="st0" d="M256,298.3L256,298.3L256,298.3l174.2-167.2c4.3-4.2,11.4-4.1,15.8,0.2l30.6,29.9c4.4,4.3,4.5,11.3,0.2,15.5
			L264.1,380.9c-2.2,2.2-5.2,3.2-8.1,3c-3,0.1-5.9-0.9-8.1-3L35.2,176.7c-4.3-4.2-4.2-11.2,0.2-15.5L66,131.3
			c4.4-4.3,11.5-4.4,15.8-0.2L256,298.3z"/>
	</g>
</g>
</svg>
