<?xml version="1.0" encoding="utf-8"?>
<!-- Generator: Adobe Illustrator 15.1.0, SVG Export Plug-In . SVG Version: 6.00 Build 0)  -->
<svg version="1.2" baseProfile="tiny" id="Ebene_1" xmlns="http://www.w3.org/2000/svg" xmlns:xlink="http://www.w3.org/1999/xlink"
	 x="0px" y="0px" width="4762.205px" height="167.244px" xml:space="preserve">
<path fill="#4a96d2" d="M0,0v146.294c2.461-0.579,5.813-0.682,10.633,0.604c4.072,1.093,4.058,2.347,4.047,3.261
	c-0.01,0.819-0.015,1.362,2.926,1.271c3.538-0.225,4.71-1.379,5.667-2.319c0.751-0.739,1.37-1.349,2.901-1.271
	c1.643,0.181,2.348,1.186,3.103,2.265c0.852,1.216,1.765,2.52,4.158,2.824c3.16,0.276,5.848-0.421,9.062-1.257
	c1.28-0.333,2.645-0.687,4.155-1.008c4.005-0.997,7.7,3.238,10.896,6.903c1.003,1.152,1.958,2.245,2.858,3.106
	c2.569,2.316,6.548,1.821,9.982,1.396c1.603-0.2,3.086-0.388,4.252-0.267c2.757,0.41,3.495-1.705,4.183-3.673
	c0.252-0.72,0.497-1.42,0.832-1.974c0.834-1.323,2.641-1.655,5.139-2.109c1.413-0.261,3.046-0.557,4.85-1.097
	c3.15-0.925,6.146-0.564,9.571-0.149c2.13,0.255,4.426,0.531,7.026,0.531c3.833,0,5.964,0.244,7.79,0.454
	c1.369,0.161,2.566,0.297,4.179,0.297c2.698,0,3.946-1.548,5.376-3.325c0.566-0.703,1.161-1.439,1.885-2.132
	c1.586-1.586,2.27-1.206,3.565-0.481c0.713,0.396,1.611,0.897,2.947,1.232c1.206,0.307,2.158,0.739,3.07,1.154
	c1.866,0.844,3.565,1.616,6.919,1.112c3.84-0.59,7.387-2.046,9.39-2.867c0.611-0.252,1.08-0.443,1.367-0.532
	c1.229-0.559,8.202-2.651,14.523-1.904c3.6,0.435,5.528,2.447,7.188,4.18c1.21,1.266,2.277,2.378,3.743,2.622
	c2.456,0.406,3.464,1.37,4.644,2.497c0.491,0.468,1.01,0.963,1.676,1.459c2.248,1.904,5.937,1.135,6.705,0
	c0.749-0.941,4.994-2.649,9.316-3.399c2.548-0.46,4.88,0.647,7.462,1.871c1.621,0.767,3.34,1.583,5.275,2.087
	c3.572,0.947,4.295,3.438,4.901,5.534c0.242,0.833,0.465,1.603,0.842,2.189c1.211,2.073,6.512,2.265,7.453,1.323
	c1.038-1.152,4.996-3.594,7.07-4.36c1.978-0.75,4.706-2.438,6.224-7.145c1.02-3.353,2.397-3.021,5.673-2.231
	c1.534,0.368,3.482,0.839,6.006,1.077c4.328,0.401,5.322,2.793,6.342,5.254c0.892,2.146,1.804,4.344,4.973,5.313
	c3.519,1.074,4.605-0.427,5.93-2.254c1.236-1.705,2.68-3.698,6.498-4.163c5.65-0.797,17.311,0.477,24.82,1.296h0.005
	c3.132,0.343,5.542,0.605,6.489,0.605c1.999,0,2.573-1.746,3.292-3.922c0.461-1.398,0.98-2.974,1.97-4.377
	c2.461-3.399,20.746-5.86,24.514-6.223c0.558-0.03,1.193-0.083,1.88-0.142c3.928-0.326,9.538-0.797,12.333,2.408
	c2.406,2.824,10.482,0.98,15.653-0.199c1.723-0.393,3.127-0.714,3.884-0.764c1.547-0.097,3.101-1.85,4.994-3.992
	c1.777-2.004,3.854-4.352,6.514-5.995c4.825-3.179,7.532-2.071,14.343,0.714h0.005c0.885,0.365,1.844,0.753,2.883,1.168
	c8.969,3.765,16.231,4.149,21.495,3.399c4.022-0.57,7.725,1.044,10.71,2.348c0.935,0.407,1.799,0.783,2.582,1.055
	c2.441,0.993,4.325,2.986,5.639,4.374c0.411,0.437,0.769,0.813,1.066,1.082c0.745,0.813,1.031,0.919,2.373,1.4
	c0.836,0.299,2.088,0.748,4.122,1.614c3.233,1.387,4.668,0.371,6.502-0.933c1.162-0.825,2.483-1.761,4.523-2.275
	c3.334-0.726,3.713-0.986,4.349-1.423c0.354-0.247,0.791-0.549,1.877-1.017c1.942-0.855,4.207-1.317,6.018-1.688
	c0.998-0.205,1.859-0.379,2.451-0.578c1.381-0.427,4.627-0.089,8.771,0.343c1.277,0.133,2.642,0.274,4.062,0.404
	c4.472,0.421,5.464,0.21,9.067-0.564c1.179-0.249,2.64-0.565,4.59-0.931c4.563-0.866,7.254-0.08,10.122,0.759
	c2.169,0.631,4.436,1.296,7.685,1.296c4.06,0,7.617,0.67,10.546,1.224c2.448,0.465,4.461,0.844,5.958,0.678
	c2.662-0.16,5.405-2.68,7.39-4.501c0.392-0.36,0.754-0.692,1.08-0.975c1.435-1.227,1.971-0.564,2.917,0.601
	c0.36,0.443,0.779,0.961,1.329,1.473c1.914,1.639,4.306,1.515,10.659,1.18l0.847-0.045c4.72-0.13,5.12-1.553,5.502-2.923
	c0.184-0.656,0.365-1.301,1.012-1.782c1.979-1.501,3.957-4.706,4.995-6.802c0.723-1.315,1.177-0.98,2.665,0.119
	c0.644,0.476,1.482,1.093,2.616,1.782c2.313,1.263,5.948,4.601,8.688,7.12c1.725,1.58,3.094,2.84,3.57,3.062
	c1.209,0.56,8.201,0,13.005-0.961c2.515-0.601,5.049-0.135,7.512,0.318c2.166,0.401,4.275,0.792,6.262,0.433
	c1.585-0.28,3.552-0.665,5.652-1.074c3.527-0.692,7.43-1.453,10.56-1.924c2.94-0.451,4.572-0.114,6.486,0.279
	c1.351,0.276,2.846,0.581,5.04,0.664c3.305,0.119,6.576-0.88,9.071-1.642c1.477-0.451,2.681-0.819,3.455-0.819
	c0.397,0,1.103,0.047,2.021,0.108h0.006c3.669,0.238,10.718,0.703,14.957-0.664c3.163-1.02,5.586-0.812,8.92-0.526
	c2.208,0.188,4.818,0.409,8.308,0.332c5.479-0.238,5.879-1.503,6.253-2.69c0.227-0.715,0.443-1.403,1.758-1.821
	c3.498-1.329,5.285-1.329,9.241-1.329c2.858,0,6.542,1.185,10.151,2.339c1.39,0.446,2.77,0.889,4.083,1.254
	c1.788,0.433,3.769,0.673,5.905,0.936c3.605,0.438,7.644,0.937,11.905,2.464c6.037,2.392,10.548,0.477,15.372-1.569
	c0.53-0.225,1.066-0.451,1.608-0.676c3.614-1.503,9.673-0.439,14.453,0.396c2.436,0.426,4.536,0.797,5.815,0.736
	c1.826-0.186,2.526-0.814,3.214-1.435c0.732-0.655,1.452-1.301,3.489-1.39c2.875-0.135,4.573,1.063,5.953,2.038
	c0.564,0.398,1.077,0.761,1.596,0.979c1.449,0.634,6.741-1.281,9.691-2.348c0.533-0.193,0.993-0.359,1.336-0.476
	c2.171-0.75,6.973-0.941,9.24-0.941c0.828,0,1.352-0.205,2.161-0.521c1.383-0.54,3.603-1.406,9.615-2.132
	c4.893-0.681,4.288,0.267,3.56,1.409c-0.674,1.055-1.455,2.278,1.893,2.55c4.219,0.243,8.099-0.222,10.775-0.545
	c1.748-0.208,2.981-0.357,3.46-0.205c0.814,0.13,2.364-0.092,4.27-0.357c0.927-0.13,1.94-0.271,2.992-0.393
	c2.53-0.44,3.878,0.747,5.315,2.012c0.382,0.341,0.774,0.685,1.195,1.005c1.844,1.396,7.363-3.069,10.395-5.522
	c0.225-0.183,0.438-0.354,0.634-0.512c0.573-0.471,0.985-0.836,1.31-1.124c1.227-1.091,1.271-1.132,4.626-1.891
	c2.627-0.578,5.818,1.636,8.521,3.513c1.678,1.166,3.17,2.198,4.216,2.348c1.387,0.094,4.925-1.686,8.881-3.676
	c4.077-2.052,8.601-4.324,11.651-4.989c4.761-0.907,17.901-8.127,25.564-12.335c2.054-1.126,3.712-2.037,4.714-2.552
	c2.48-1.299,11.228-4.479,19.535-7.502h0.003c7.449-2.713,14.544-5.293,16.46-6.272c3.955-2.076,9.719-2.268,15.466-0.56
	c1.744,2.577,5.913,1.539,9.575,0.626c1.691-0.421,3.274-0.817,4.465-0.817c1.847,0,5.794-1.818,9.808-3.668
	c4.169-1.924,8.416-3.881,10.479-3.881c2.194,0,5.774-2.143,9.351-4.282c2.873-1.721,5.741-3.437,7.881-4.036
	c4.726-1.132,14.984-3.957,20.748-6.588c3.602-1.771,6.206-0.731,8.764,0.292c1.521,0.606,3.021,1.205,4.701,1.205
	c4.531,0,6.973,2.824,9.24,6.225c2.264,3.21,3.765,7.722,0,9.413c-3.671,1.708-4.247,9.432,3.302,10.932
	c7.455,1.518,21.689,2.073,27.99,1.899c4.761-0.294,12.338-4.006,19.986-7.757c2.347-1.151,4.703-2.303,6.983-3.366
	c6.696-3.084,8.905-3.012,12.436-2.896c1.633,0.056,3.554,0.119,6.333-0.119c8.759-0.75,11.776,0.75,12.255,3.402
	c0.56,2.458,4.806,6.013,8.3,6.799c1.76,0.282,3.258-0.438,5.141-1.34c1.854-0.889,4.083-1.96,7.308-2.425
	c3.272-0.582,5.785-2.879,8.302-5.186c2.478-2.267,4.961-4.542,8.18-5.189c3.461-0.602,8.28-1.257,13.263-1.938h0.009
	c4.391-0.598,8.908-1.215,12.739-1.825c8.299-1.134,20.072-4.708,20.072-4.708s6.226,2.056,6.704,4.708
	c0.274,1.668-0.468,5.383-1.076,8.452c-0.427,2.124-0.789,3.939-0.709,4.552c0.288,1.517,10.835,5.475,14.521,6.034
	c3.768,0.557,5.554,3.206,5.747,6.607c0.285,3.209,1.307,6.974,4.994,6.414c2.063-0.315,3.676-2.209,5.132-3.925
	c1.202-1.412,2.301-2.702,3.455-2.874c2.438-0.193,11.505-3.017,13.655-4.534c2.268-1.497,5.11-3.188,9.816-2.438
	c3.964,0.628,5.664-0.332,9.415-2.45l0.005-0.005c0.703-0.396,1.481-0.834,2.356-1.313c3.38-1.86,5.893-1.711,8.625-1.548
	c1.697,0.103,3.48,0.208,5.611-0.16c3.701-0.637,3.178-4.285,2.624-8.158c-0.266-1.852-0.539-3.756-0.356-5.404
	c0.263-2.809,1.666-4.013,2.965-5.129c0.974-0.836,1.891-1.622,2.22-2.997c0.75-3.381,4.994-3.573,8.762-1.498
	c3.765,1.901,21.032,3.765,23.588,3.765c1.135,0,3.048-0.777,5.046-1.59c2.298-0.934,4.703-1.913,6.171-1.81
	c2.749,0.384,8.011-1.691,10.472-4.515c-0.573,0.776,0.432,2.896,1.601,5.36c0.791,1.682,1.666,3.522,2.164,5.206
	c1.008,3.61,3.278,2.902,5.747,2.13c0.498-0.156,1.008-0.314,1.514-0.44c2.998-0.749,7.262,5.859,7.262,8.492
	c0,2.804-0.77,6.012-6.974,11.122c-5.99,4.643-12.326,1.154-16.813-1.314c-0.249-0.133-0.49-0.266-0.726-0.396
	c-2.5-1.467-3.072-3.563-3.513-5.179c-0.357-1.299-0.629-2.284-1.75-2.37c-1.871-0.293-2.051,7.618-2.147,11.912
	c-0.033,1.348-0.056,2.339-0.119,2.61c-0.191,0.941-1.498,4.706-4.997,6.034c-2.817,0.914-2.502,4.878-2.182,8.858
	c0.078,0.952,0.152,1.904,0.186,2.818c0.255,4.157,8.662,2.876,14.379,2.004c0.758-0.116,1.467-0.224,2.104-0.313
	c3.656-0.49,8.125,0.401,11.485,1.071c1.758,0.349,3.214,0.64,4.094,0.64c2.442,0,6.974,0.556,11.505,2.632
	c4.421,1.899,29.51,3.956,37.232,3.765c1.418-0.071,2.965-0.116,4.59-0.163c7.228-0.207,16.025-0.462,22.188-3.235
	c7.451-3.189,10.932-4.9,10.932-4.9s9.314-0.559,12.811,0c1.216,0.133,2.284,0.563,3.156,0.914c1.642,0.658,2.607,1.046,2.607-1.299
	c0-3.399,2.268-4.896,5.744-6.226c3.493-1.132,9.719,9.24,9.719,9.24s3.5-1.132,5.476-3.205c1.24-1.146,2.628-1.456,3.859-1.73
	c0.812-0.18,1.559-0.349,2.153-0.729c1.061-0.658,2.713-1.494,3.967-2.131c0.537-0.271,1.002-0.507,1.315-0.676
	c0.91-0.388,2.859,2.773,4.359,5.207l0.155,0.249c1.08,1.913,6.301,3.807,10.185,5.219c1.497,0.545,2.798,1.016,3.59,1.389
	c2.727,1.307,10.738,2.442,10.738,2.442v-11.873c0-2.223,2.306-2.577,5.146-3.009c0.745-0.114,1.523-0.233,2.307-0.394
	c3.768-0.747,9.722,11.316,10.278,14.14c0.462,2.652,6.226,9.435,8.777,9.24c2.442-0.382,3.668-2.264,3.959-5.857
	c0.177-2.093,1.672-4.252,2.968-6.126c0.813-1.171,1.547-2.23,1.832-3.098c0.753-2.264,7.727,0,11.22,3.189
	c1.34,1.301,2.494,2.935,3.621,4.528c1.815,2.572,3.563,5.038,5.888,5.847c1.462,0.46,2.437,1.719,3.452,3.034
	c1.536,1.987,3.169,4.103,6.729,3.765c3.516-0.435,4.213-1.583,5.021-2.912c0.581-0.952,1.218-1.999,2.989-2.945
	c3.173-1.681,15.566,0.73,22.373,2.054c2.303,0.446,3.97,0.77,4.427,0.77c0.672,0,1.943,0.731,3.449,1.601
	c2.477,1.423,5.592,3.219,7.768,2.74c2.128-0.443,7.546,0.896,12.75,2.187h0.003c3.585,0.886,7.067,1.75,9.301,1.982
	c5.456,0.385,17.999,1.883,19.688,2.633c0.296,0.124,0.681,0.269,1.118,0.435c2.201,0.83,5.758,2.176,6.146,3.908
	c0,0,5.263-1.307,9.222-2.057c2.206-0.407,7.305-0.65,12.121-0.88c4.025-0.191,7.862-0.374,9.661-0.64
	c1.857-0.175,2.55-2.364,3.322-4.812c0.913-2.893,1.943-6.147,5.148-6.865c4.33-0.938,5.166,0.637,6.307,2.785
	c0.451,0.847,0.946,1.783,1.725,2.688c2.804,3.209,7.241,5.091,8.474,5.091c0.691,0,2.441-0.753,4.406-1.6
	c1.725-0.739,3.613-1.553,5.1-1.993c2.14-0.609,3.925,1.467,5.741,3.574c0.982,1.143,1.977,2.3,3.036,3.036
	c1.857,1.157,3.71,0.745,6.074,0.216c1.473-0.332,3.149-0.708,5.146-0.774c2.292-0.084,4.211,0.37,6.162,0.827
	c2.533,0.596,5.124,1.204,8.65,0.673c3.585-0.546,8.878-2.411,13.271-3.959c3.205-1.132,5.932-2.093,7.167-2.247
	c3.014-0.576,17.251-1.518,21.035-0.576c3.765,0.961,14.81,0.961,19.979,0.961c5.281,0,19.807-0.385,26.779-1.154
	c6.973-0.748,20.748-2.245,23.763-2.63c1.494-0.095,3.108,0.554,4.907,1.273c1.827,0.73,3.843,1.539,6.115,1.722
	c2.527,0.323,7.529-1.774,12.244-3.751c3.718-1.559,7.256-3.042,9.254-3.203c0.947-0.039,1.883-0.044,2.782-0.053
	c3.383-0.021,6.236-0.041,7.208-1.846c0.9-1.661,5.581-1.694,12.424-1.744c2.511-0.017,5.313-0.039,8.321-0.142
	c11.153-0.207,22.489-4.056,27.046-5.6l0.193-0.066c0.886-0.294,2.272-0.781,4.017-1.396l0.006-0.003
	c7.172-2.521,20.329-7.153,28.98-8.978c3.258-0.614,7.235-1.151,11.391-1.713c9.667-1.304,20.308-2.741,25.186-5.642
	c3.643-2.271,9.761-2.932,16.092-3.618c5.78-0.629,11.739-1.276,16.16-3.184c8.034-3.449,26.545-2.594,35.29-2.189
	c0.586,0.027,1.132,0.053,1.624,0.074c0.59,0.025,1.107,0.048,1.545,0.062c3.737,0.221,4.144,3.958,4.504,7.264
	c0.258,2.369,0.493,4.518,1.91,4.991c3.001,1.325,23.743,4.343,30.544,3.593c3.862-0.404,14.725,0.614,25.338,1.608
	c9.091,0.853,18.007,1.688,22.188,1.6c6.264-0.127,18.383-1.924,27.12-3.216c4.39-0.653,7.928-1.177,9.439-1.299
	c3.765-0.16,9.097-8.645,12.19-13.572l0.004-0.006c0.628-1.002,1.165-1.854,1.58-2.464c1.365-1.877,3.075-1.96,5.586-2.078
	c2.01-0.098,4.529-0.219,7.801-1.302c3.743-1.314,8.363-2.624,12.736-3.861l0.004-0.003c4.445-1.26,8.637-2.447,11.388-3.493
	c5.476-1.902,18.48-1.708,21.877,1.307c1.755,1.473,3.776,2.63,5.825,3.801c2.143,1.229,4.315,2.472,6.242,4.113
	c3.526,3.188,6.903,4.047,10.89,5.058c0.266,0.069,0.534,0.136,0.809,0.207c1.151,0.366,2.45,1.014,3.856,1.711
	c3.653,1.816,8.041,3.995,12.548,2.649c3.712-1.237,18.082-1.47,29.556-1.658c7.766-0.125,14.213-0.229,15.129-0.609
	c2.264-1.135,13.215-2.458,18.287-3.017c2.059-0.228,6.336-1.484,11.056-2.868c6.896-2.026,14.738-4.332,17.99-4.103
	c5.454,0.191,22.99,0.767,27.699-0.56c4.899-1.307,17.73-5.456,20.382-6.973c1.946-1.196,14.592-0.961,22.301-0.816
	c1.952,0.038,3.585,0.066,4.65,0.066c1.67,0,3.322,0.224,4.997,0.451c3.438,0.465,6.981,0.943,11.022-0.451
	c3.48-1.185,5.459-0.938,7.087-0.736c1.196,0.149,2.204,0.276,3.479-0.205c3.399-1.307,18.672-2.073,23.378-0.747
	c4.726,1.132,13.771,1.497,16.789,0.382c1.331-0.415,3.906,0.528,6.743,1.566c3.594,1.313,7.6,2.779,10.026,1.836
	c2.345-1.074,7.81,0.085,13.346,1.265c4.274,0.908,8.59,1.821,11.552,1.733c5.592-0.316,6.962-1.127,8.845-2.237
	c0.285-0.172,0.587-0.349,0.913-0.531c0.139-0.077,0.277-0.152,0.424-0.229c2.63-1.521,6.802,0.385,10.179,3.955
	c2.458,2.619,7.843,1.877,12.593,1.224c1.417-0.196,2.776-0.385,3.988-0.474c3.134-0.307,6.664-1.138,9.833-1.885
	c2.556-0.604,4.881-1.151,6.569-1.323c1.337-0.205,4.199,0.053,7.641,0.365c5.824,0.526,13.309,1.202,17.815,0.02
	c2.954-0.697,7.223-1.91,11.577-3.147c6.2-1.766,12.584-3.576,15.585-4.02c2.032-0.288,4.853-0.127,8.31,0.069
	c5.504,0.313,12.612,0.717,20.718-0.451c5.63-3.953,10.195-4.368,15.015-4.806c2.295-0.21,4.676-0.426,7.228-1.035
	c2.808-0.72,7.369-1.572,12.587-2.545l0,0c9.863-1.84,21.996-4.107,28.884-6.695c6.888-2.76,20.692-3.353,33.024-3.881
	c6.179-0.266,12.02-0.517,16.355-1.018c7.54-0.879,22.563-4.591,34.752-7.6l0,0c8.875-2.191,16.216-4.008,18.057-4.081
	c4.139-0.19,17.717,0.192,26.93,0.941c-1.305,1.307-2.041,9.605-1.305,19.979c0.653,9.145,20.128,9.814,31.068,10.188
	c1.702,0.059,3.202,0.108,4.393,0.186c9.071,0.382,17.349-2.268,20.751-5.091c1.334-1.174,3.374-0.276,6.577,1.138
	c4.053,1.78,9.949,4.379,18.68,4.7c12.415,0.305,18.821-5.326,22.622-8.681c1.046-0.919,1.898-1.667,2.635-2.076
	c2.409-1.386,7.06-0.553,11.565,0.255c2.154,0.39,4.308,0.773,6.151,0.897c2.467,0.261,3.117,0.688,3.939,1.224
	c0.936,0.613,2.098,1.366,6.436,2.178c3.004,0.083,11.876,1.437,22.138,3.009c13.437,2.054,29.282,4.479,37.617,4.905
	c12.357,2.441,34.865-0.681,44.078-1.96c2.182-0.299,3.599-0.498,3.997-0.498c2.068,0,16.241-1.135,23.583-3.593
	c3.855-1.323,3.997-1.77,4.196-2.367c0.142-0.512,0.368-1.141,2.948-2.531c12.471,0.484,31.549,0.97,44.701,1.304h0.03
	c7.142,0.181,12.528,0.318,14.115,0.386c3.315,0.142,3.798-5.373,4.196-9.825c0.141-1.634,0.255-3.124,0.51-4.141
	c2.834,0.212,20.183-0.385,23.781-0.748c3.571-0.559,10.176-9.222,10.007-16.964c23.926-1.324,73.9,9.413,90.681,13.37
	c4.28,1.015,9.041,2.188,13.861,3.38v0.002c14.004,3.456,28.518,7.042,33.847,7.185c7.341,0.192,11.308-2.823,13.18-5.456
	c1.702-2.823,0-9.816-1.501-12.832c-1.107-2.239-0.453-4.997,0.255-8.044v-0.005c0.255-1.058,0.51-2.149,0.709-3.267
	c5.102,0.749,25.821,0.749,32.994,0c2.295-0.24,6.773-0.796,12.216-1.474c11.482-1.429,27.383-3.405,36.994-4.175
	c11.084-1.025,49.38,0.665,71.744,1.65c6.52,0.288,11.679,0.516,14.4,0.598c10.348,0.168,13.974-1.657,20.578-4.992
	c0.994-0.498,2.043-1.031,3.203-1.596c8.648-4.169,54.086-2.46,68.998-0.961c14.71,1.517,42.234,6.973,46.403,8.49
	c2.067,0.75,4.931-1.19,8.418-3.528c3.458-2.332,7.511-5.059,11.934-5.903c6.802,0,24.887-5.456,33.194-8.106
	c5.273-1.564,15.676,0.989,23.867,3.012c4.733,1.157,8.73,2.142,10.657,2.079c2.071-0.152,8.191-0.125,15.023-0.093
	c10.433,0.048,22.48,0.104,24.181-0.465c2.807-0.941,14.881-3.017,29.99-4.899c8.759-1.208,13.21-5.031,17.008-8.315
	c2.749-2.358,5.16-4.44,8.617-5.074c8.305-1.499,55.076,0.385,60.918,2.267c-0.964,5.84,2.436,10.565,17.148,10.565
	c14.342,0,14.91-7.356,14.91-7.356s9.607-0.96,19.418-1.902c10.176-0.942,34.127-11.315,35.83-14.523
	c5.242,0.192,59.018,7.549,86.711,13.217c27.552,5.647,92.976,13.005,128.041,13.754c25.652,0.425,51.023-2.729,64.659-4.425
	c4.903-0.609,8.277-1.03,9.636-1.03c3.316,0,14.969-3.957,24.408-7.166c4.988-1.694,9.381-3.181,11.593-3.766
	c3.602,0.834,7.683-0.086,11.765-1.009c2.322-0.524,4.648-1.049,6.888-1.257c6.237-0.75,27.724,2.266,31.69,3.016
	c-0.936,1.902,0,16.041,0,16.041s-1.699,0.191-6.973-0.404c0-3.38-3.402-6.954-10.375-8.299c-5.697-1.225-7.511,0.441-12.076,4.695
	c-1.018,0.947-2.181,2.02-3.57,3.22c-7.541,6.608,3.77,10.009,13.406,11.315c8.222,1.137,17.18,6.991,23.131,10.891
	c0.994,0.647,1.899,1.24,2.693,1.749c5.133,3.308,17.264,5.015,27.156,6.41c1.362,0.192,2.693,0.379,3.939,0.563
	c7.428,1.211,12.445-4.449,15.79-8.237c1.331-1.5,2.408-2.707,3.261-3.077c2.351-1.029-0.767-9.442-2.92-15.19
	c-0.596-1.652-1.135-3.085-1.418-4.06c-1.304-4.34-3.402-8.297-3.402-8.297s27.696,1.325,33.734,3.207
	c-0.427,2.256,1.217,5.67,3.285,9.988v0.005c1.39,2.888,2.979,6.178,4.283,9.794c2.211,5.78,9.381,9.238,15.931,12.4
	c3.513,1.694,6.859,3.304,9.154,5.14c5.074,4.217,21.005-2.427,30.899-6.554c2.947-1.232,5.383-2.24,6.801-2.668
	c2.666,1.69,13.041,1.69,25.457-3.4c0.68,2.271,1.844,2.418,4.562,2.759c1.788,0.224,4.252,0.531,7.685,1.583
	c3.967,6.417,14.342,9.048,14.342,9.048V0H0z"/>
</svg>
