<svg width="1680" height="147" fill="none" xmlns="http://www.w3.org/2000/svg">
<path d="M1680 147V111.874C1679.78 111.897 1679.57 111.925 1679.34 111.955C1678.35 112.088 1677.13 112.25 1673.87 112.145C1672.21 110.606 1667.62 110.017 1664.89 110.145C1662.22 110.213 1654.38 112.273 1648.93 114.266C1643.47 116.265 1637.76 117.797 1632.03 117.993C1628.17 118.168 1623.13 115.814 1618.35 113.582C1615.91 112.44 1613.53 111.329 1611.42 110.606C1605.16 108.485 1597.05 105.89 1592.39 104.69C1588.96 103.88 1582.16 100.311 1576.78 97.4933C1574.65 96.3759 1572.75 95.3763 1571.37 94.7143C1566.58 92.383 1561.39 90.3838 1555.41 89.923C1551.18 89.5972 1545.02 86.4748 1539.94 83.899C1537.83 82.8306 1535.91 81.8563 1534.39 81.2145C1533.53 80.8401 1532.54 80.3985 1531.47 79.922L1531.47 79.921L1531.47 79.9205C1526.08 77.5163 1518.71 74.2274 1516.16 74.2274C1514.79 74.2274 1512.46 73.5705 1509.9 72.847C1506.76 71.9607 1503.26 70.9745 1500.73 70.9745C1497.1 70.9745 1489.12 74.6056 1485.3 76.3445L1485.3 76.3451C1484.3 76.8012 1483.59 77.1271 1483.31 77.2229C1482.71 77.442 1482.11 78.0549 1481.56 78.6157C1480.95 79.2343 1480.41 79.7896 1479.99 79.6829C1479.32 79.4186 1475.06 80.015 1474.4 81.2213C1473.67 82.3463 1473.33 82.6106 1471.8 81.6821C1470.45 80.8561 1469.36 82.8375 1467.84 85.6043C1467.64 85.9699 1467.43 86.3493 1467.21 86.7378C1463.68 87.4187 1462.68 89.6241 1461.8 91.5855C1461.65 91.9079 1461.51 92.224 1461.36 92.5253C1459.62 93.6819 1455.81 94.0021 1452.65 94.2676C1451.44 94.3692 1450.32 94.4629 1449.45 94.5923C1447 94.946 1441.73 93.8145 1437.94 92.9997C1436.79 92.7529 1435.78 92.5352 1435.02 92.3966C1431.7 91.8002 1424.51 90.3973 1421.59 88.8725C1418.66 87.3341 1411.21 89.3334 1407.35 90.5939C1404.62 91.5373 1396.92 95.2012 1390.89 98.0661L1390.88 98.0723C1388.38 99.2592 1386.18 100.309 1384.73 100.969C1381.87 102.245 1381.12 101.12 1380.35 99.9521C1379.79 99.1097 1379.21 98.2451 1377.82 98.2451C1374.95 98.2451 1371.44 98.7892 1369.63 99.0695C1369.34 99.1142 1369.1 99.1524 1368.9 99.1803C1368.31 99.2904 1367.82 99.8373 1367.2 100.542C1366.29 101.572 1365.07 102.939 1362.78 103.768C1360.9 104.449 1359.51 104.719 1358.37 104.94C1357.17 105.173 1356.25 105.351 1355.33 105.896C1353.64 106.935 1350.44 107.276 1349.11 107.418L1349.01 107.428C1348.47 107.486 1347.91 107.693 1347.25 107.935C1346.39 108.254 1345.36 108.635 1343.96 108.824C1341.5 109.224 1327.72 115.208 1325 116.604C1323.48 117.397 1318.71 119.329 1313.61 121.398L1313.6 121.4C1309.72 122.973 1305.64 124.625 1302.65 125.916C1292.81 121.924 1276.98 119.328 1274.31 119.2C1274.31 119.2 1267.39 114.815 1265.14 113.812C1263.68 113.126 1259.01 109.591 1255.59 107.005C1253.71 105.58 1252.21 104.443 1251.83 104.229C1251.37 103.969 1248.95 102.966 1246.18 101.816C1242.59 100.326 1238.41 98.5902 1237.13 97.913C1234.94 96.7135 1227.49 96.7135 1220.44 96.9846C1213.48 97.1783 1208.47 92.5242 1207.44 91.5679L1207.4 91.5291C1206.87 91.0733 1207.02 90.1544 1207.19 89.1894C1207.31 88.447 1207.44 87.6768 1207.26 87.0698C1206.92 85.6738 1202.07 82.143 1199.94 80.6181C1197.82 79.0933 1191.03 74.6951 1189.43 74.0309C1188.17 73.5002 1180.56 68.8321 1175.27 65.5855L1175.27 65.5835L1175.24 65.5688C1173.31 64.3863 1171.7 63.3943 1170.81 62.8624C1170.4 62.6163 1169.82 62.2686 1169.12 61.8449C1164.11 58.8261 1152.71 51.9496 1149.79 50.4876C1148.72 49.9742 1146.69 49.0449 1144.35 47.9736L1144.35 47.9717C1139.09 45.5649 1132.27 42.4428 1131.3 41.7114C1130.86 41.3962 1130.42 41.0475 1129.97 40.6882L1129.96 40.6875C1128.87 39.8268 1127.7 38.9061 1126.44 38.2416C1124.71 37.3132 1123.18 39.9087 1123.18 39.9087C1123.18 39.9087 1122.12 37.4487 1120.66 37.1844C1119.33 36.9879 1118.46 38.2416 1117.72 40.3764C1117.32 39.78 1111.47 35.9239 1108.95 35.585C1106.35 35.1852 1101.63 35.7883 1099.63 36.1204C1097.64 36.527 1095.18 39.7122 1095.18 39.7122C1095.18 39.7122 1093.78 39.78 1092.45 39.78C1091.18 39.78 1089.06 41.1083 1089.06 41.1083C1089.06 41.1083 1089.06 38.9803 1088.2 37.3132C1087.6 37.4311 1086.68 37.7082 1085.68 38.0085C1084.43 38.3812 1083.07 38.7896 1082.08 38.9735C1081.35 39.1157 1080.47 39.6554 1079.52 40.2434C1078.19 41.0565 1076.72 41.962 1075.29 42.0367C1072.83 42.1655 1071.3 43.0939 1068.84 44.6323C1068.4 41.8262 1066.4 42.3243 1064.58 42.7777C1063.93 42.9387 1063.31 43.0939 1062.78 43.0939C1060.79 43.0939 1058.79 43.6971 1057.46 44.9576C1056.96 44.8832 1056.43 44.7125 1055.86 44.5291C1054.92 44.2284 1053.87 43.8936 1052.68 43.8936C1050.81 43.8936 1047.55 45.8861 1046.36 47.2889C1045.45 48.4602 1042.6 49.2987 1040.83 49.8219C1040.4 49.9495 1040.03 50.0584 1039.77 50.1488C1038.43 50.6096 1037.31 50.6096 1035.78 50.3453C1034.5 50.1816 1030.78 50.7939 1028.34 51.1949C1027.85 51.2752 1027.42 51.3471 1027.06 51.4025C1024.94 51.8091 1018.48 52.7376 1016.63 52.8731C1016.49 51.8769 1014.77 50.7452 1013.43 50.4741C1012.82 50.3837 1012.23 49.9827 1011.55 49.5303C1010.76 48.9984 1009.86 48.3955 1008.71 48.1428C1006.65 47.682 1003.65 51.0705 1003.65 51.0705C1003.65 51.0705 1002.52 50.142 1002.26 48.8069C1001.99 47.5464 1001.33 45.8793 999.595 46.1436C997.799 46.3469 998.735 48.1428 998.735 48.1428C998.735 48.1428 997.867 48.6036 997.467 48.2783C997.467 47.4177 996.797 42.8228 996.139 42.7619C995.468 42.6263 990.948 42.2333 990.02 42.4976C989.091 42.7619 988.488 48.6104 988.488 48.6104L987.092 48.7459C986.686 48.1496 984.632 46.1504 983.236 45.8861C981.772 45.6895 979.441 45.4252 979.441 45.4252C979.441 45.4252 979.109 43.426 978.98 42.3688C978.838 41.3048 975.185 39.1158 972.861 39.1158C972.461 38.1738 969.005 37.5775 967.541 38.0451C966.893 38.2621 966.345 37.993 965.71 37.6816C964.976 37.322 964.128 36.906 962.879 37.1166C960.48 37.4487 960.019 38.5127 959.084 41.1083C958.291 42.2996 956.384 42.2325 955.096 42.1872C954.875 42.1794 954.672 42.1723 954.496 42.1723C953.342 42.1723 953.298 42.7244 953.121 44.9576L953.1 45.2287C952.102 45.4836 951.088 46.6368 950.157 47.6966C949.404 48.5524 948.705 49.3473 948.112 49.5592L948.103 49.5473C947.582 48.8183 947.439 48.6183 945.781 48.8205C944.617 49.0105 944.695 49.8202 944.776 50.654C944.81 51.0094 944.845 51.3692 944.785 51.6872C944.244 52.087 943.461 52.0095 942.689 51.9331C942.048 51.8697 941.415 51.8071 940.935 52.0192C940.192 52.3684 940.113 52.7893 939.9 53.9224C939.828 54.3069 939.741 54.7733 939.607 55.3467C938.849 55.5362 937.959 56.5683 937.161 57.4941C936.56 58.1911 936.01 58.8278 935.609 58.9995C935.154 59.1522 934.585 59.1359 933.999 59.1191C933.31 59.0993 932.599 59.0789 932.024 59.3316C931.677 59.484 931.246 59.8125 930.725 60.2093C929.646 61.0304 928.184 62.1436 926.297 62.5913C924.049 63.1668 922.705 62.2593 921.331 61.3312C920.958 61.0788 920.582 60.8249 920.185 60.5989C918.321 59.5349 914.065 58.7352 911.334 59.0605C911.112 59.0937 910.871 59.1304 910.614 59.1696C907.725 59.61 902.785 60.3629 898.628 59.9957C896.088 59.8063 891.642 59.661 887.352 59.5209C884.12 59.4152 880.978 59.3125 878.806 59.1961C876.068 59.0911 874.738 58.6263 873.534 58.2057C872.484 57.8392 871.531 57.5063 869.826 57.4747C867.026 57.3656 864.182 57.619 862.136 57.8012C861.514 57.8567 860.966 57.9055 860.515 57.9355C858.658 58.0033 854.999 58.0033 854.999 58.0033C854.999 58.0033 854.538 59.0605 854.199 60.4024C853.72 60.4024 853.178 60.7487 852.481 61.1949C852.123 61.4238 851.724 61.679 851.271 61.9272C850.143 62.4444 849.172 65.8447 848.544 68.0434C848.357 68.6971 848.201 69.2445 848.08 69.5784C847.477 70.9813 845.552 73.7734 844.224 73.7734C844.055 73.6576 843.484 73.1419 842.671 72.4084L842.669 72.4071C840.248 70.2216 835.685 66.1044 833.245 64.8616C830.812 63.6196 827.294 60.7354 824.839 58.7227L824.837 58.7207C824.011 58.0437 823.305 57.4654 822.802 57.0816C820.81 55.55 817.95 53.5508 815.822 52.6292C815.262 52.3747 814.558 52.0073 813.764 51.5926C811.639 50.4832 808.865 49.0347 806.443 48.502C804.921 48.1981 802.591 47.3112 800.027 46.3351C796.988 45.1779 793.619 43.8953 790.877 43.3108C788.13 42.7363 784.658 41.4315 781.323 40.178C778.521 39.1247 775.816 38.1078 773.718 37.591C771.355 36.9733 768.498 36.4616 765.882 35.993C763.418 35.5517 761.167 35.1486 759.744 34.7311C758.413 34.3748 756.378 33.5862 754.166 32.7291C751.455 31.6788 748.48 30.5257 746.211 29.9398C744.123 29.4041 742.367 28.5064 740.654 27.6304C738.986 26.7776 737.359 25.9453 735.503 25.4873C731.742 24.4911 727.988 23.2238 723.502 20.4317C719.043 17.5718 712.557 14.6441 709.629 14.5086C708.803 12.977 703.144 8.65326 699.288 6.05767C696.064 3.90617 691.471 1.94094 689.252 0.991781C688.794 0.795858 688.437 0.643232 688.215 0.541196C686.914 -0.0551782 681.858 -0.522792 677.169 1.20534C673.881 2.457 671.236 3.80742 668.932 4.98357C667.93 5.49498 666.993 5.97345 666.095 6.39651C663.168 7.79258 657.184 11.913 655.754 13.3158C654.358 14.7797 651.864 16.1757 650.468 16.1757C649.626 16.1757 647.246 17.7505 644.972 19.2559C643.75 20.0645 642.558 20.853 641.651 21.3669C640.128 22.1863 637.918 23.5776 635.566 25.0586C633.911 26.1009 632.185 27.1877 630.578 28.1507C628.672 29.3365 627.22 30.3899 625.781 31.4335C624.309 32.5013 622.85 33.5589 620.935 34.7379C617.174 37.137 612.349 39.7935 610.722 40.0578C609.899 40.1553 608.616 41.0554 607.346 41.9468C606.054 42.8535 604.775 43.751 604.006 43.7852C603.034 43.8709 601.417 43.0251 599.914 42.2389C599.039 41.7812 598.203 41.3437 597.555 41.1218C595.786 40.5187 586.705 37.0014 585.079 35.8019C583.418 34.6701 581.189 30.1431 580.592 28.747C580.542 28.623 580.479 28.4618 580.405 28.2701C580.364 28.1625 580.319 28.0453 580.271 27.9198C579.442 25.7509 577.657 21.0838 576.133 20.1674C575.171 19.5864 573.823 19.8581 572.224 20.1803C570.895 20.4483 569.391 20.7513 567.791 20.6282C564.945 19.4695 562.197 20.0988 559.458 20.726C558.897 20.8545 558.336 20.9829 557.775 21.0958C555.775 21.5412 553.378 23.1436 550.617 24.9897C548.841 26.1772 546.914 27.4655 544.845 28.6115C542.988 29.664 541.523 30.4688 540.288 31.1482L540.285 31.1494C538.005 32.4031 536.5 33.2301 534.734 34.3991C532.043 36.1272 525.917 39.719 522.861 40.9795L522.504 40.6873C519.987 38.6262 517.063 36.2322 514.146 35.5918C511.09 34.8667 507.464 37.1912 506.725 37.7875C506.027 38.3907 504.868 42.2468 504.868 42.2468C504.868 42.2468 502.408 42.5111 499.447 42.9719C499.583 41.2438 496.987 39.78 495.225 39.1836C494.716 39.0294 493.846 38.6824 492.767 38.252C490.1 37.188 486.157 35.6146 483.223 35.1852C479.096 34.6566 475.003 33.1927 472.882 32.3931C472.285 31.6102 470.653 31.0767 468.859 30.4902C467.453 30.0308 465.948 29.5388 464.763 28.869C462.039 27.3374 454.754 26.0091 453.358 26.47C452.653 25.3382 445.341 24.9384 441.715 24.7418C440.651 24.0099 431.238 18.9543 428.643 18.0258C426.047 17.0906 415.936 14.8339 411.816 15.3625C407.723 15.8301 395.721 21.3533 391.499 23.3458C387.237 25.3382 376.428 29.5332 373.839 30.5294C371.243 31.4646 361.132 35.5782 359.506 37.1166C358.173 38.3465 352.527 39.017 348.961 39.4405C348.086 39.5444 347.336 39.6334 346.806 39.7122C345.106 39.9189 341.229 40.6692 337.551 41.3812L337.549 41.3815C335.319 41.8131 333.161 42.2307 331.606 42.5043C327.513 43.2295 317.876 44.368 313.383 43.5615C308.931 42.7686 298.915 45.2287 296.455 45.8928C294.809 46.3824 290.528 46.7568 285.825 47.1681C283.498 47.3716 281.067 47.5842 278.801 47.8243C271.984 48.4884 261.039 52.2835 257.183 53.9371C255.229 54.7404 252.118 55.3249 249.134 55.8855C246.177 56.441 243.345 56.973 241.888 57.6712C240.119 56.9393 228.016 56.0041 223.292 55.9363C218.61 55.8008 211.189 58.4642 205.903 60.5989C205.397 60.8033 204.854 61.0235 204.281 61.2558C198.868 63.4497 190.777 66.7297 185.783 68.1146C183.098 68.8566 179.437 70.5774 175.979 72.2027C172.33 73.9174 168.908 75.5257 167.099 75.7658C163.568 76.2267 153.688 77.887 150.171 78.6257C146.613 79.2899 134.869 81.5534 132.144 83.3425C129.454 85.0706 114.884 89.5299 110.763 90.2618C106.636 90.9327 91.4699 92.5931 87.8105 92.8574C87.1064 92.8956 86.3122 92.9442 85.4774 92.9953L85.4747 92.9955C82.0112 93.2076 77.8509 93.4624 76.5406 93.1895C75.0211 92.8868 66.9873 96.6774 64.4943 97.8538C64.2524 97.9679 64.0623 98.0576 63.9358 98.1163C62.9909 98.6117 61.5432 100.815 60.0863 103.031C59.3906 104.09 58.6928 105.151 58.0467 106.032C57.4638 106.829 56.7897 107.843 56.0835 108.906C54.3761 111.475 52.4805 114.326 51.2293 115.079C50.6949 115.402 49.8999 115.571 48.9869 115.766C46.8897 116.212 44.1697 116.792 42.555 119.667C40.3842 123.449 38.1335 124.325 35.8501 125.214L35.8469 125.215C35.6435 125.294 35.4399 125.373 35.236 125.455C32.7761 126.383 22.9971 131.771 20.2051 134.834C17.8843 137.338 14.299 138.905 11.5957 140.087C10.9994 140.347 10.446 140.589 9.95856 140.818C8.23379 141.67 3.68758 144.053 0 146.181V147H1680Z" fill="#4a96d2"/>
</svg>
